<svg width="1080" height="600" viewBox="0 0 1080 600" fill="none" xmlns="http://www.w3.org/2000/svg">
<rect width="1080" height="600" fill="#030102"/>
<path d="M913.054 265.729C920.894 265.729 927.837 267.124 933.86 269.882C939.884 272.661 944.923 276.825 949 282.372L934.779 296.592C931.925 293.078 928.691 290.429 925.036 288.666C921.392 286.903 917.185 286.016 912.448 286.016C907.982 286.016 904.522 286.697 902.1 288.049C899.656 289.411 898.455 291.38 898.455 293.942C898.455 296.657 899.677 298.744 902.1 300.236C904.544 301.729 907.68 303.016 911.529 304.087C915.379 305.168 919.456 306.358 923.717 307.634C927.977 308.921 932.055 310.683 935.904 312.911C939.754 315.15 942.912 318.124 945.334 321.854C947.778 325.585 948.978 330.419 948.979 336.377C948.979 345.85 945.648 353.366 939.029 358.914C932.389 364.462 923.403 367.252 912.016 367.252V367.229C906.598 367.229 901.396 366.516 896.39 365.089C891.383 363.661 886.765 361.649 882.58 359C878.395 356.351 874.718 353.15 871.614 349.365L885.835 335.145C889.209 339.059 893.112 342.011 897.514 343.979C901.904 345.948 906.879 346.921 912.448 346.921C917.455 346.921 921.24 346.175 923.813 344.683C926.376 343.19 927.664 341.038 927.664 338.184C927.664 335.329 926.442 332.906 924.02 331.273C921.597 329.641 918.44 328.266 914.568 327.12C910.719 325.963 906.641 324.774 902.381 323.573C898.12 322.351 894.054 320.707 890.193 318.599C886.344 316.512 883.185 313.625 880.752 309.98C878.308 306.336 877.107 301.578 877.107 295.76C877.107 289.531 878.568 284.189 881.466 279.723C884.364 275.257 888.506 271.795 893.858 269.373C899.201 266.951 905.603 265.729 913.054 265.729ZM458.516 323.367C458.516 328.104 459.294 332.138 460.862 335.447C462.42 338.778 464.712 341.298 467.772 343.071C470.811 344.834 474.445 345.721 478.63 345.721C485.129 345.721 490.104 343.784 493.543 339.935C497.003 336.085 498.723 330.569 498.723 323.389V267.729H521.054V324.395C521.054 332.927 519.258 340.4 515.668 346.834C512.089 353.268 507.104 358.276 500.756 361.866C494.397 365.446 487.011 367.24 478.63 367.24V367.229C470.368 367.229 463.014 365.402 456.602 361.747C450.167 358.103 445.161 353.042 441.57 346.607C437.991 340.173 436.185 332.776 436.185 324.373V267.729H458.516V323.367ZM177.9 265.674C185.351 265.674 191.948 267.264 197.701 270.443C201.592 272.601 204.939 275.293 207.748 278.525V267.729H230.079V365.196H207.748V354.51C204.982 357.676 201.668 360.32 197.799 362.428C191.981 365.596 185.341 367.196 177.89 367.196L177.9 367.229C169.098 367.229 161.15 364.991 154.045 360.524C146.94 356.058 141.316 350.002 137.196 342.346C133.055 334.689 131 326.135 131 316.651C131 307.168 133.055 298.408 137.196 290.752C141.316 283.117 146.94 277.028 154.045 272.476C161.15 267.945 169.098 265.674 177.9 265.674ZM583.635 265.674C592.989 265.674 600.721 267.783 607.696 271.968C614.671 276.164 620.154 281.916 624.134 289.227C628.124 296.537 630.125 304.854 630.125 314.208C630.125 315.841 630.017 317.495 629.822 319.182C629.617 320.879 629.313 322.729 628.902 324.762H556.206C556.813 327.293 557.694 329.655 558.849 331.846C561.293 336.442 564.743 340.01 569.198 342.508C573.664 345.017 578.801 346.261 584.641 346.261C589.648 346.261 594.276 345.374 598.559 343.611C602.819 341.849 606.453 339.285 609.416 335.89L623.636 350.315C618.899 355.863 613.147 360.059 606.377 362.903C599.607 365.737 592.426 367.164 584.846 367.164V367.229C575.102 367.229 566.332 365.045 558.546 360.633C550.76 356.242 544.596 350.175 540.064 342.454C535.533 334.733 533.263 326.081 533.263 316.457C533.263 306.832 535.502 298.213 539.968 290.557C544.434 282.9 550.49 276.845 558.146 272.379C565.803 267.913 574.281 265.674 583.635 265.674ZM353.144 278.701C355.825 275.513 359.039 272.84 362.789 270.681C368.542 267.372 375.009 265.706 382.189 265.706C389.37 265.706 395.999 267.339 401.688 270.572C407.376 273.816 411.832 278.326 415.098 284.079C418.353 289.832 419.964 296.504 419.964 304.085V365.207H397.622V308.952C397.622 302.453 395.545 297.11 391.425 292.914C387.283 288.718 381.995 286.621 375.496 286.621C371.17 286.621 367.299 287.572 363.925 289.454C360.551 291.357 357.901 294.007 355.998 297.381C354.095 300.776 353.144 304.627 353.144 308.952V365.207H330.812V219H353.144V278.701ZM683.725 330.056L710.495 267.739H734.254L689.775 365.207H676.82L632.342 267.739H657.117L683.725 330.056ZM273.335 365.206H251.004V267.738H273.335V365.206ZM181.588 286.837C176.04 286.837 171.401 288.092 167.271 290.59C163.129 293.099 159.885 296.581 157.527 301.047C155.148 305.513 153.979 310.671 153.979 316.468C153.98 322.264 155.17 327.433 157.527 331.889C159.885 336.355 163.14 339.848 167.271 342.346C171.391 344.854 176.159 346.099 181.588 346.099L181.573 346.119C189.821 346.118 196.503 343.35 201.573 337.793C206.645 332.245 209.196 325.13 209.196 316.468C209.196 310.65 208.04 305.502 205.747 301.047C203.444 296.581 200.231 293.088 196.111 290.59C191.991 288.081 187.135 286.837 181.588 286.837ZM583.213 286.178C577.525 286.178 572.593 287.399 568.387 289.821C564.191 292.265 560.936 295.672 558.644 300.073C557.612 302.039 556.815 304.177 556.249 306.486H608.136C607.551 303.618 606.692 301.047 605.565 298.775C603.532 294.72 600.656 291.595 596.926 289.422C593.206 287.27 588.631 286.178 583.213 286.178ZM262.175 223.087C265.949 223.087 269.29 224.374 271.724 226.937C274.168 229.521 275.368 232.69 275.368 236.475C275.368 240.26 274.146 243.45 271.724 246.013C269.28 248.597 266.111 249.862 262.175 249.862C258.39 249.862 255.232 248.576 252.745 246.013C250.236 243.45 248.992 240.26 248.992 236.475C248.992 232.69 250.247 229.499 252.745 226.937C255.254 224.374 258.401 223.087 262.175 223.087Z" fill="white"/>
<path d="M819.767 225.946C840.08 229.284 851.87 251.835 857.091 268.897C863.97 291.338 864.651 319.515 856.603 341.626C838.759 390.656 768.713 394.764 743.276 348.605C728.149 321.149 741.143 287.265 757.9 263.56C770.44 245.825 795.024 221.879 819.767 225.946Z" fill="#FFD826"/>
<path d="M793.711 334.974C797.257 341.07 806.671 342.272 812.211 336.22L814.582 333.628L819.767 338.375L817.395 340.965C808.904 350.242 793.75 349.017 787.637 338.509L785.87 335.471L791.945 331.937L793.711 334.974Z" fill="#030102"/>
<path d="M830.199 319.978C831.751 319.494 833.433 319.646 834.873 320.401C836.312 321.156 837.393 322.451 837.877 324.002L837.878 324.006C837.883 324.022 837.889 324.038 837.894 324.054V324.057C838.378 325.608 838.227 327.289 837.473 328.729C836.718 330.169 835.422 331.251 833.87 331.735C832.318 332.22 830.637 332.067 829.197 331.313C827.757 330.558 826.675 329.263 826.19 327.711V327.708C826.185 327.692 826.181 327.675 826.176 327.659L826.173 327.657C825.689 326.105 825.843 324.423 826.597 322.983C827.352 321.544 828.647 320.463 830.199 319.978Z" fill="#030102"/>
<path d="M774.688 318.366C776.24 317.882 777.922 318.034 779.362 318.789C780.802 319.544 781.882 320.84 782.366 322.392L782.383 322.442V322.445C782.868 323.997 782.716 325.678 781.962 327.118C781.207 328.558 779.911 329.64 778.359 330.125C776.807 330.609 775.126 330.455 773.686 329.701C772.246 328.946 771.164 327.651 770.679 326.099V326.096C770.674 326.08 770.67 326.063 770.665 326.047L770.662 326.045C770.178 324.493 770.332 322.811 771.087 321.372C771.841 319.932 773.136 318.851 774.688 318.366Z" fill="#030102"/>
<path d="M828.221 307.505C834.737 308.065 841.308 309.95 847.071 314.114L842.955 319.809C838.47 316.568 833.208 314.987 827.619 314.507L828.221 307.505Z" fill="#030102"/>
<path d="M761.341 308.166C765.751 302.624 774.354 300.449 782.477 302.469L780.782 309.289C774.566 307.743 769.096 309.708 766.84 312.543L761.341 308.166Z" fill="#030102"/>
</svg>
